<svg width="24" height="24" viewBox="0 0 24 24" fill="none" xmlns="http://www.w3.org/2000/svg">
<path d="M17.0021 8.80085C17.0021 7.52759 16.4963 6.30647 15.596 5.40614C14.6957 4.5058 13.4745 4 12.2013 4C10.928 4 9.7069 4.5058 8.80656 5.40614C7.90623 6.30647 7.40043 7.52759 7.40043 8.80085C7.40043 14.4018 5 16.0021 5 16.0021H19.4026C19.4026 16.0021 17.0021 14.4018 17.0021 8.80085Z" stroke="black" stroke-linecap="round" stroke-linejoin="round"/>
<path d="M13.5854 19.2026C13.4447 19.4451 13.2428 19.6464 12.9999 19.7864C12.7569 19.9263 12.4815 19.9999 12.2011 19.9999C11.9208 19.9999 11.6454 19.9263 11.4024 19.7864C11.1595 19.6464 10.9576 19.4451 10.8169 19.2026" stroke="black" stroke-linecap="round" stroke-linejoin="round"/>
</svg>
