<svg width="24" height="24" viewBox="0 0 24 24" fill="none" xmlns="http://www.w3.org/2000/svg">
<path d="M12.1567 4.68652H6.59037C6.16858 4.68652 5.76406 4.85408 5.46581 5.15233C5.16756 5.45058 5 5.8551 5 6.27689V17.4095C5 17.8313 5.16756 18.2358 5.46581 18.5341C5.76406 18.8323 6.16858 18.9999 6.59037 18.9999H17.723C18.1448 18.9999 18.5493 18.8323 18.8475 18.5341C19.1458 18.2358 19.3133 17.8313 19.3133 17.4095V11.8432" stroke="black" stroke-linecap="round" stroke-linejoin="round"/>
<path d="M18.1204 3.49406C18.4368 3.17772 18.8658 3 19.3132 3C19.7606 3 20.1897 3.17772 20.506 3.49406C20.8223 3.81041 21.0001 4.23946 21.0001 4.68684C21.0001 5.13422 20.8223 5.56328 20.506 5.87962L12.9517 13.4339L9.771 14.2291L10.5662 11.0483L18.1204 3.49406Z" stroke="black" stroke-linecap="round" stroke-linejoin="round"/>
</svg>
