<svg width="24" height="24" viewBox="0 0 24 24" fill="none" xmlns="http://www.w3.org/2000/svg">
<path fill-rule="evenodd" clip-rule="evenodd" d="M15.6927 8.83609C15.7283 8.4234 16.0916 8.11766 16.5043 8.1532C18.4163 8.31784 19.9137 8.90578 20.9074 10.1304C21.8842 11.3343 22.26 13.0168 22.26 15.1104V15.2404C22.26 17.5496 21.8022 19.3614 20.5866 20.577C19.3709 21.7926 17.5592 22.2504 15.25 22.2504H8.73998C6.4308 22.2504 4.61903 21.7926 3.4034 20.577C2.18777 19.3614 1.72998 17.5496 1.72998 15.2404V15.1104C1.72998 13.032 2.10069 11.3596 3.06183 10.1582C4.04031 8.93506 5.51591 8.33934 7.40037 8.16367C7.81279 8.12523 8.1783 8.4284 8.21674 8.84082C8.25519 9.25325 7.95202 9.61875 7.53959 9.6572C5.88405 9.81153 4.86465 10.3058 4.23313 11.0952C3.58427 11.9063 3.22998 13.1689 3.22998 15.1104V15.2404C3.22998 17.4013 3.66719 18.7195 4.46406 19.5164C5.26093 20.3132 6.57916 20.7504 8.73998 20.7504H15.25C17.4108 20.7504 18.729 20.3132 19.5259 19.5164C20.3228 18.7195 20.76 17.4013 20.76 15.2404V15.1104C20.76 13.1541 20.4007 11.8866 19.7426 11.0755C19.1012 10.2851 18.0637 9.79303 16.3756 9.64767C15.9629 9.61213 15.6572 9.24878 15.6927 8.83609Z" fill="#333F48"/>
<path fill-rule="evenodd" clip-rule="evenodd" d="M12 1.25C12.4142 1.25 12.75 1.58579 12.75 2V14.88C12.75 15.2942 12.4142 15.63 12 15.63C11.5858 15.63 11.25 15.2942 11.25 14.88V2C11.25 1.58579 11.5858 1.25 12 1.25Z" fill="#333F48"/>
<path fill-rule="evenodd" clip-rule="evenodd" d="M8.11957 12.1201C8.41247 11.8272 8.88734 11.8272 9.18023 12.1201L11.9999 14.9397L14.8196 12.1201C15.1125 11.8272 15.5873 11.8272 15.8802 12.1201C16.1731 12.413 16.1731 12.8878 15.8802 13.1807L12.5302 16.5307C12.2373 16.8236 11.7625 16.8236 11.4696 16.5307L8.11957 13.1807C7.82668 12.8878 7.82668 12.413 8.11957 12.1201Z" fill="#333F48"/>
</svg>
