<svg width="32" height="32" viewBox="0 0 32 32" fill="none" xmlns="http://www.w3.org/2000/svg">
<path fill-rule="evenodd" clip-rule="evenodd" d="M8.0953 10.2678C10.2062 10.0551 12.3352 9.94043 14.4659 9.94043C18.0358 9.94043 21.6221 10.1197 25.1761 10.4784C25.5882 10.52 25.8886 10.8878 25.847 11.2999C25.8054 11.712 25.4376 12.0124 25.0255 11.9708C21.5219 11.6172 17.9859 11.4404 14.4659 11.4404C12.3884 11.4404 10.3092 11.5523 8.24431 11.7604L8.24154 11.7607L8.24154 11.7607L6.07248 11.9711C5.6602 12.0111 5.29356 11.7093 5.25356 11.297C5.21356 10.8848 5.51535 10.5181 5.92763 10.4781L8.0953 10.2678Z" fill="#858C91"/>
<path fill-rule="evenodd" clip-rule="evenodd" d="M13.0645 8.00074C12.9569 8.12324 12.9006 8.32446 12.8104 8.88381L12.5836 10.277C12.5171 10.6858 12.1317 10.9633 11.7229 10.8967C11.314 10.8302 11.0366 10.4448 11.1031 10.036L11.3296 8.64496C11.3296 8.64478 11.3295 8.64513 11.3296 8.64496C11.3331 8.62326 11.3367 8.60047 11.3403 8.57769C11.4109 8.13409 11.5126 7.4947 11.9374 7.01094C12.4271 6.45335 13.1797 6.25 14.1581 6.25H16.9423C17.9296 6.25 18.6796 6.4656 19.1661 7.02665C19.5845 7.50926 19.6881 8.14055 19.7585 8.57008C19.7625 8.59442 19.7664 8.61811 19.7702 8.64108L19.7704 8.6425L19.9971 10.0184C20.0644 10.4271 19.7876 10.813 19.3789 10.8803C18.9702 10.9476 18.5843 10.6709 18.517 10.2622L18.2906 8.88768C18.2906 8.88746 18.2907 8.88791 18.2906 8.88768C18.2002 8.34548 18.145 8.1387 18.0328 8.00932C17.9649 7.93098 17.7518 7.75 16.9423 7.75H14.1581C13.3398 7.75 13.1292 7.92705 13.0645 8.00074Z" fill="#858C91"/>
<path fill-rule="evenodd" clip-rule="evenodd" d="M8.21738 10.6061C8.63072 10.5792 8.98762 10.8924 9.01455 11.3058L9.71045 21.9871C9.71047 21.9875 9.71049 21.9878 9.71052 21.9881C9.73955 22.4153 9.76459 22.7578 9.82452 23.0568C9.88295 23.3483 9.96533 23.5447 10.075 23.6875C10.2675 23.9381 10.7291 24.2502 12.1348 24.2502H18.9496C20.3553 24.2502 20.817 23.9381 21.0095 23.6875C21.1191 23.5447 21.2015 23.3483 21.2599 23.0568C21.3198 22.7578 21.3449 22.4153 21.3739 21.9881C21.3739 21.9878 21.374 21.9875 21.374 21.9871L22.0699 11.3058C22.0968 10.8924 22.4537 10.5792 22.8671 10.6061C23.2804 10.633 23.5937 10.9899 23.5667 11.4033L22.8707 22.0867L22.8705 22.0888L22.8696 22.1018C22.8423 22.5043 22.8125 22.9435 22.7307 23.3516C22.6465 23.7718 22.4982 24.2117 22.1991 24.6011C21.5741 25.4148 20.5061 25.7502 18.9496 25.7502H12.1348C10.5783 25.7502 9.51032 25.4148 8.88536 24.6012C8.58627 24.2117 8.43798 23.7718 8.35377 23.3516C8.27197 22.9435 8.24213 22.5043 8.21478 22.1018L8.2139 22.0888L8.21376 22.0867L7.51773 11.4033C7.4908 10.9899 7.80404 10.633 8.21738 10.6061Z" fill="#858C91"/>
</svg>
