<svg width="40" height="40" viewBox="0 0 40 40" fill="none" xmlns="http://www.w3.org/2000/svg">
<path d="M27.498 35.6663H13.4083C10.2403 35.6663 7.6665 33.1026 7.6665 29.9847V10.0147C7.6665 6.89673 10.2403 4.33301 13.4083 4.33301H27.498C30.6659 4.33301 33.2398 6.89673 33.2398 10.0147V29.9847C33.2398 33.1026 30.6659 35.6663 27.498 35.6663ZM13.4083 5.03571C10.6677 5.03571 8.39353 7.27681 8.39353 10.0147V29.9847C8.39353 32.7225 10.6677 34.9636 13.4083 34.9636H27.498C30.2385 34.9636 32.5127 32.7225 32.5127 29.9847V10.0147C32.5127 7.27681 30.2385 5.03571 27.498 5.03571H13.4083Z" stroke="#4A7BF7" stroke-width="2"/>
<path d="M22.1798 6.41059C22.1798 7.384 21.3811 8.18836 20.377 8.18836C19.3729 8.18836 18.5742 7.38399 18.5742 6.41059C18.5742 5.43718 19.3729 4.63281 20.377 4.63281C21.3811 4.63281 22.1798 5.43718 22.1798 6.41059Z" fill="#4A7BF7" stroke="#4A7BF7" stroke-width="2"/>
<mask id="path-3-inside-1_733_7101" fill="white">
<path d="M23.4956 12.1172H13.1692C12.4229 12.1172 11.8179 12.7222 11.8179 13.4685C11.8179 14.2149 12.4229 14.8199 13.1692 14.8199H23.4956C24.242 14.8199 24.847 14.2149 24.847 13.4685C24.847 12.7222 24.242 12.1172 23.4956 12.1172Z"/>
<path d="M16.6023 21.9817H13.1692C12.4229 21.9817 11.8179 22.5867 11.8179 23.333C11.8179 24.0793 12.4229 24.6844 13.1692 24.6844H16.6023C17.3487 24.6844 17.9537 24.0793 17.9537 23.333C17.9537 22.5867 17.3487 21.9817 16.6023 21.9817Z"/>
<path d="M23.4956 17.1172H13.1692C12.4229 17.1172 11.8179 17.7222 11.8179 18.4685C11.8179 19.2149 12.4229 19.8199 13.1692 19.8199H23.4956C24.242 19.8199 24.847 19.2149 24.847 18.4685C24.847 17.7222 24.242 17.1172 23.4956 17.1172Z"/>
<path d="M16.6023 26.4564H13.1692C12.4229 26.4564 11.8179 27.0615 11.8179 27.8078C11.8179 28.5541 12.4229 29.1592 13.1692 29.1592H16.6023C17.3487 29.1592 17.9537 28.5541 17.9537 27.8078C17.9537 27.0615 17.3487 26.4564 16.6023 26.4564Z"/>
</mask>
<path d="M13.1692 14.1172H23.4956V10.1172H13.1692V14.1172ZM23.4956 12.8199H13.1692V16.8199H23.4956V12.8199ZM13.1692 12.8199C13.5275 12.8199 13.8179 13.1103 13.8179 13.4685H9.81787C9.81787 15.3194 11.3183 16.8199 13.1692 16.8199V12.8199ZM22.847 13.4685C22.847 13.1103 23.1374 12.8199 23.4956 12.8199V16.8199C25.3465 16.8199 26.847 15.3194 26.847 13.4685H22.847ZM23.4956 14.1172C23.1374 14.1172 22.847 13.8268 22.847 13.4685H26.847C26.847 11.6176 25.3465 10.1172 23.4956 10.1172V14.1172ZM13.1692 10.1172C11.3183 10.1172 9.81787 11.6176 9.81787 13.4685H13.8179C13.8179 13.8268 13.5275 14.1172 13.1692 14.1172V10.1172ZM13.1692 23.9817H16.6023V19.9817H13.1692V23.9817ZM16.6023 22.6844H13.1692V26.6844H16.6023V22.6844ZM13.1692 22.6844C13.5275 22.6844 13.8179 22.9748 13.8179 23.333H9.81787C9.81787 25.1839 11.3183 26.6844 13.1692 26.6844V22.6844ZM15.9537 23.333C15.9537 22.9748 16.2441 22.6844 16.6023 22.6844V26.6844C18.4532 26.6844 19.9537 25.1839 19.9537 23.333H15.9537ZM16.6023 23.9817C16.2441 23.9817 15.9537 23.6912 15.9537 23.333H19.9537C19.9537 21.4821 18.4532 19.9817 16.6023 19.9817V23.9817ZM13.1692 19.9817C11.3183 19.9817 9.81787 21.4821 9.81787 23.333H13.8179C13.8179 23.6912 13.5275 23.9817 13.1692 23.9817V19.9817ZM13.1692 19.1172H23.4956V15.1172H13.1692V19.1172ZM23.4956 17.8199H13.1692V21.8199H23.4956V17.8199ZM13.1692 17.8199C13.5275 17.8199 13.8179 18.1103 13.8179 18.4685H9.81787C9.81787 20.3194 11.3183 21.8199 13.1692 21.8199V17.8199ZM22.847 18.4685C22.847 18.1103 23.1374 17.8199 23.4956 17.8199V21.8199C25.3465 21.8199 26.847 20.3194 26.847 18.4685H22.847ZM23.4956 19.1172C23.1374 19.1172 22.847 18.8268 22.847 18.4685H26.847C26.847 16.6176 25.3465 15.1172 23.4956 15.1172V19.1172ZM13.1692 15.1172C11.3183 15.1172 9.81787 16.6176 9.81787 18.4685H13.8179C13.8179 18.8268 13.5275 19.1172 13.1692 19.1172V15.1172ZM13.1692 28.4564H16.6023V24.4564H13.1692V28.4564ZM16.6023 27.1592H13.1692V31.1592H16.6023V27.1592ZM13.1692 27.1592C13.5275 27.1592 13.8179 27.4496 13.8179 27.8078H9.81787C9.81787 29.6587 11.3183 31.1592 13.1692 31.1592V27.1592ZM15.9537 27.8078C15.9537 27.4496 16.2441 27.1592 16.6023 27.1592V31.1592C18.4532 31.1592 19.9537 29.6587 19.9537 27.8078H15.9537ZM16.6023 28.4564C16.2441 28.4564 15.9537 28.166 15.9537 27.8078H19.9537C19.9537 25.9569 18.4532 24.4564 16.6023 24.4564V28.4564ZM13.1692 24.4564C11.3183 24.4564 9.81787 25.9569 9.81787 27.8078H13.8179C13.8179 28.166 13.5275 28.4564 13.1692 28.4564V24.4564Z" fill="#4A7BF7" mask="url(#path-3-inside-1_733_7101)"/>
</svg>
