<svg width="16" height="16" viewBox="0 0 16 16" fill="none" xmlns="http://www.w3.org/2000/svg">
<path fill-rule="evenodd" clip-rule="evenodd" d="M2.06303 2.06376C2.95268 1.17412 4.28394 0.833984 5.99992 0.833984H7.33325C7.60939 0.833984 7.83325 1.05784 7.83325 1.33398C7.83325 1.61013 7.60939 1.83398 7.33325 1.83398H5.99992C4.38257 1.83398 3.38049 2.16052 2.77014 2.77087C2.15978 3.38123 1.83325 4.3833 1.83325 6.00065V10.0007C1.83325 11.618 2.15978 12.6201 2.77014 13.2304C3.38049 13.8408 4.38257 14.1673 5.99992 14.1673H9.99992C11.6173 14.1673 12.6193 13.8408 13.2297 13.2304C13.8401 12.6201 14.1666 11.618 14.1666 10.0007V8.66732C14.1666 8.39118 14.3904 8.16732 14.6666 8.16732C14.9427 8.16732 15.1666 8.39118 15.1666 8.66732V10.0007C15.1666 11.7166 14.8265 13.0479 13.9368 13.9375C13.0472 14.8272 11.7159 15.1673 9.99992 15.1673H5.99992C4.28394 15.1673 2.95268 14.8272 2.06303 13.9375C1.17339 13.0479 0.833252 11.7166 0.833252 10.0007V6.00065C0.833252 4.28467 1.17339 2.95341 2.06303 2.06376Z" fill="#858C91"/>
<path fill-rule="evenodd" clip-rule="evenodd" d="M12.1312 0.675993C12.8734 0.603136 13.6093 0.929094 14.3403 1.66005C15.0712 2.391 15.3972 3.12688 15.3243 3.86911C15.254 4.58512 14.8222 5.17854 14.3403 5.66049L9.08114 10.9196C8.93101 11.0649 8.73477 11.1918 8.54542 11.287C8.35719 11.3816 8.13547 11.465 7.92409 11.4952L5.91488 11.7823C5.42016 11.8504 4.94681 11.7153 4.61471 11.3845C4.28191 11.0531 4.14577 10.5796 4.21854 10.082C4.21859 10.0817 4.21863 10.0813 4.21868 10.081L4.50485 8.07784C4.50489 8.07754 4.50493 8.07725 4.50497 8.07695C4.535 7.86279 4.61801 7.63949 4.7133 7.44989C4.8088 7.2599 4.93737 7.0625 5.0865 6.91338L10.3398 1.66005C10.8218 1.1781 11.4152 0.746276 12.1312 0.675993ZM12.2289 1.67121C11.8582 1.70759 11.4717 1.94244 11.0469 2.36716L5.7936 7.62049C5.74272 7.67137 5.6713 7.77064 5.60679 7.89898C5.54222 8.02746 5.50533 8.1438 5.49525 8.21603L5.49502 8.21765L5.20836 10.2243L5.20808 10.2262C5.17451 10.4549 5.24175 10.5977 5.32038 10.676C5.39982 10.7551 5.54611 10.8233 5.77736 10.7918C5.77776 10.7917 5.77815 10.7917 5.77855 10.7916L7.78267 10.5053C7.85129 10.4955 7.96624 10.4589 8.09634 10.3935C8.22351 10.3296 8.3262 10.2577 8.38325 10.2033L13.6332 4.95338C14.0579 4.52867 14.2927 4.14208 14.3291 3.77142C14.3629 3.42699 14.2355 2.96953 13.6332 2.36716C13.0308 1.76478 12.5733 1.6374 12.2289 1.67121Z" fill="#858C91"/>
<path fill-rule="evenodd" clip-rule="evenodd" d="M9.8051 2.28431C10.071 2.20977 10.347 2.3649 10.4215 2.63079C10.8209 4.05553 11.9361 5.17184 13.3697 5.57802C13.6354 5.6533 13.7897 5.9297 13.7145 6.19539C13.6392 6.46107 13.3628 6.61543 13.0971 6.54015C11.3307 6.03966 9.95256 4.66264 9.45863 2.90072C9.38409 2.63482 9.53921 2.35885 9.8051 2.28431Z" fill="#858C91"/>
</svg>
