<svg width="24" height="24" viewBox="0 0 24 24" fill="none" xmlns="http://www.w3.org/2000/svg">
<path fill-rule="evenodd" clip-rule="evenodd" d="M5 3H19C20.1 3 21 3.9 21 5V19C21 20.1 20.1 21 19 21H5C3.9 21 3 20.1 3 19V16V13H12.67L10.79 14.88C10.4 15.27 10.41 15.91 10.79 16.29C11.18 16.68 11.81 16.68 12.2 16.29L15.79 12.7C16.18 12.31 16.18 11.68 15.79 11.29L12.2 7.69999C12.0132 7.51273 11.7595 7.4075 11.495 7.4075C11.2305 7.4075 10.9768 7.51273 10.79 7.69999C10.4 8.08999 10.4 8.71999 10.79 9.10999L12.67 11H3V8V5C3 3.9 3.89 3 5 3Z" fill="#A2A8B1"/>
</svg>
