<svg width="24" height="24" viewBox="0 0 24 24" fill="none" xmlns="http://www.w3.org/2000/svg">
<path d="M17.5 20.5H6.5C3.2 20.5 1 19 1 15.5V8.5C1 5 3.2 3.5 6.5 3.5H17.5C20.8 3.5 23 5 23 8.5V15.5C23 19 20.8 20.5 17.5 20.5Z" stroke="#858C91" stroke-width="1.5" stroke-miterlimit="10" stroke-linecap="round" stroke-linejoin="round"/>
<path d="M19 9H15" stroke="#858C91" stroke-width="1.5" stroke-miterlimit="10" stroke-linecap="round" stroke-linejoin="round"/>
<path d="M19 13H16" stroke="#858C91" stroke-width="1.5" stroke-miterlimit="10" stroke-linecap="round" stroke-linejoin="round"/>
<path d="M7.81763 10.9C7.77763 10.9 7.7176 10.9 7.6676 10.9C6.6176 10.86 5.7876 10.01 5.7876 8.95C5.7876 7.87 6.65761 7 7.73761 7C8.81761 7 9.68762 7.88 9.68762 8.95C9.69762 10.01 8.86763 10.87 7.81763 10.9Z" stroke="#858C91" stroke-width="1.5" stroke-linecap="round" stroke-linejoin="round"/>
<path d="M4.9975 13.9102C3.6675 14.8002 3.6675 16.2502 4.9975 17.1402C6.5075 18.1502 8.9875 18.1502 10.4975 17.1402C11.8275 16.2502 11.8275 14.8002 10.4975 13.9102C8.9875 12.9102 6.5175 12.9102 4.9975 13.9102Z" stroke="#858C91" stroke-width="1.5" stroke-linecap="round" stroke-linejoin="round"/>
</svg>
