<svg width="34" height="34" viewBox="0 0 34 34" fill="none" xmlns="http://www.w3.org/2000/svg">
<path d="M7.10315 12.0776V4.29579L11.3008 4.29134V2.19179L5.00211 2.19475V13.6245L7.10315 12.0776Z" fill="#2E8EE6"/>
<path d="M10.002 21.1904H24.002L23.9987 23.1904H10.002V21.1904Z" fill="#353638"/>
<path d="M10.002 16.9941L24.002 16.9927V18.9927L10.002 18.9899V16.9941Z" fill="#353638"/>
<path d="M4.9931 31.5918H28.999V23.1906V6.38528C28.9978 5.27576 28.5567 4.212 27.7723 3.42731C26.9879 2.64262 25.9242 2.20107 24.8147 2.1995H22.6944H13.3958V4.29165L24.8147 4.30498C25.3643 4.30694 25.8908 4.52611 26.2794 4.91471C26.668 5.30331 26.8871 5.8298 26.8891 6.37935V29.4893H7.09414V14.1686L4.9931 15.7377V23.1906V31.5918Z" fill="#353638"/>
</svg>
