<svg width="23" height="22" viewBox="0 0 23 22" fill="none" xmlns="http://www.w3.org/2000/svg">
<path fill-rule="evenodd" clip-rule="evenodd" d="M11.5 0C14.1169 0 16.5208 0.914718 18.4094 2.44048L16.2699 4.01748C14.9113 3.08717 13.2684 2.54146 11.5 2.54146C6.83705 2.54146 3.04343 6.33769 3.04343 11.0011C3.04343 15.6645 6.83705 19.4585 11.5 19.4585C16.1652 19.4585 19.9588 15.6645 19.9588 11.0011C19.9588 10.9254 19.9566 10.8497 19.9551 10.7739L22.3233 9.02838C22.4399 9.6669 22.5 10.3277 22.5 11.0011C22.5 17.076 17.575 22 11.5 22C5.42576 22 0.5 17.076 0.5 11.0011C0.5 4.92403 5.42576 0 11.5 0ZM20.2032 4.27512C20.7236 4.94705 21.1683 5.67912 21.5232 6.46094L11.5001 13.8492L7.31232 11.2224V8.06318L11.5001 10.69L20.2032 4.27512Z" fill="white"/>
</svg>
