<svg width="24" height="24" viewBox="0 0 24 24" fill="none" xmlns="http://www.w3.org/2000/svg">
<path d="M13.8333 2.82812H9.24992C4.66659 2.82812 2.83325 4.65586 2.83325 9.22521V14.7084C2.83325 19.2778 4.66659 21.1055 9.24992 21.1055" stroke="#4A7BF7" stroke-width="1.5" stroke-linecap="round" stroke-linejoin="round"/>
<path d="M21.1667 10.1396V11.9674" stroke="#4A7BF7" stroke-width="1.5" stroke-linecap="round" stroke-linejoin="round"/>
<path d="M21.1666 10.1391H17.4999C14.7499 10.1391 13.8333 9.22521 13.8333 6.4836V2.82812L21.1666 10.1391Z" stroke="#4A7BF7" stroke-width="1.5" stroke-linecap="round" stroke-linejoin="round"/>
<path d="M17.6691 13.766L12.2058 18.5632C11.9978 18.7458 11.779 19.1159 11.7237 19.3915L11.3297 21.3206C11.1842 22.0191 11.6613 22.5391 12.3821 22.483L14.3731 22.3179C14.6509 22.2949 15.0492 22.1232 15.2638 21.9409L20.7271 17.1437C21.67 16.3158 22.1486 15.3186 20.9106 13.9512C19.6725 12.5837 18.612 12.938 17.6691 13.766Z" stroke="#4A7BF7" stroke-width="1.4" stroke-miterlimit="10" stroke-linecap="round" stroke-linejoin="round"/>
<path d="M16.886 14.4541C17.2368 16.0238 18.3944 17.3024 19.944 17.8318" stroke="#4A7BF7" stroke-width="1.4" stroke-miterlimit="10" stroke-linecap="round" stroke-linejoin="round"/>
</svg>
