<svg width="24" height="24" viewBox="0 0 24 24" fill="none" xmlns="http://www.w3.org/2000/svg">
<path fill-rule="evenodd" clip-rule="evenodd" d="M5.33008 2.75977C4.65781 2.75977 4.06006 3.31006 4.06006 4.12976V6.44977C4.06006 6.61266 4.11982 6.88206 4.25809 7.19028C4.39356 7.49224 4.5738 7.76286 4.75036 7.93943L4.76365 7.95305L8.60367 11.9931C8.61628 12.0063 8.6284 12.0201 8.64001 12.0342C8.90276 12.3546 9.14136 12.7772 9.31532 13.2129C9.48804 13.6454 9.62006 14.1481 9.62006 14.6298V19.9798C9.62006 20.9691 10.7551 21.5821 11.6002 21.0652L13.0033 20.1596C13.3514 19.935 13.8156 20.035 14.0402 20.3831C14.2648 20.7311 14.1648 21.1953 13.8167 21.4199L12.4068 22.3299L12.3945 22.3377C10.6202 23.4348 8.12006 22.2283 8.12006 19.9798V14.6298C8.12006 14.4014 8.05207 14.0941 7.92229 13.7692C7.79829 13.4586 7.63905 13.1849 7.49575 13.0047L3.68249 8.99285C3.3523 8.66038 3.08013 8.22919 2.8895 7.80425C2.70028 7.38247 2.56006 6.89688 2.56006 6.44977V4.12976C2.56006 2.52946 3.78235 1.25977 5.33008 1.25977H18.67C20.1942 1.25977 21.4401 2.50553 21.4401 4.02975V6.24976C21.4401 6.79727 21.2722 7.36133 21.0548 7.83744C20.8366 8.31561 20.5373 8.7732 20.2104 9.10009C19.9175 9.39299 19.4426 9.39299 19.1497 9.10009C18.8568 8.8072 18.8568 8.33233 19.1497 8.03943C19.3228 7.86633 19.5285 7.56891 19.6903 7.21457C19.853 6.85818 19.9401 6.51224 19.9401 6.24976V4.02975C19.9401 3.33398 19.3658 2.75977 18.67 2.75977H5.33008Z" fill="#203883"/>
<path fill-rule="evenodd" clip-rule="evenodd" d="M18.0033 10.576C18.6665 10.5079 19.2768 10.8058 19.8203 11.3493C20.3669 11.8958 20.6684 12.5074 20.6026 13.1722C20.5407 13.7973 20.1679 14.2823 19.8203 14.6299L16.2879 18.1623C16.1413 18.3159 15.961 18.4276 15.8128 18.5017C15.657 18.5796 15.4676 18.6503 15.2769 18.6804L15.2645 18.6824L13.916 18.8721C13.9158 18.8721 13.9163 18.872 13.916 18.8721C13.4745 18.9349 13.0186 18.8188 12.6896 18.4899C12.3607 18.161 12.2445 17.7059 12.3074 17.2644C12.3074 17.2641 12.3073 17.2646 12.3074 17.2644L12.499 15.9026C12.5296 15.7089 12.6019 15.5206 12.6795 15.3673C12.757 15.2139 12.8673 15.0416 13.0096 14.8992L16.5497 11.3593C16.5497 11.3593 16.5497 11.3593 16.5497 11.3593C16.8973 11.0116 17.3812 10.6399 18.0033 10.576ZM18.1566 12.0682C18.0488 12.0792 17.8727 12.1576 17.6103 12.4199L14.0716 15.9586C14.0711 15.9592 14.0655 15.9655 14.0562 15.9791C14.0444 15.9963 14.0309 16.0187 14.018 16.0444C14.005 16.07 13.9949 16.0942 13.9879 16.114C13.9836 16.1264 13.9816 16.1342 13.9808 16.1372L13.8069 17.3726L15.043 17.1987C15.0462 17.1979 15.0553 17.1956 15.0701 17.1905C15.0915 17.1832 15.1166 17.1727 15.1421 17.16C15.1678 17.1472 15.1882 17.1348 15.2018 17.1253C15.205 17.1231 15.2074 17.1214 15.209 17.1201C15.2125 17.1165 15.2161 17.1128 15.2196 17.1093L18.7596 13.5693C19.022 13.3069 19.0992 13.1318 19.1099 13.0245C19.1166 12.9568 19.113 12.7633 18.7596 12.4099C18.4131 12.0634 18.2234 12.0613 18.1566 12.0682Z" fill="#203883"/>
<path fill-rule="evenodd" clip-rule="evenodd" d="M16.3793 11.6672C16.7784 11.5563 17.1918 11.79 17.3027 12.1891C17.5323 13.0156 18.1742 13.6576 19.0007 13.8872C19.3998 13.998 19.6335 14.4114 19.5226 14.8105C19.4118 15.2096 18.9984 15.4433 18.5993 15.3324C17.2658 14.962 16.2278 13.924 15.8574 12.5906C15.7465 12.1915 15.9802 11.7781 16.3793 11.6672Z" fill="#203883"/>
</svg>
