<svg width="24" height="24" viewBox="0 0 24 24" fill="none" xmlns="http://www.w3.org/2000/svg">
<g clip-path="url(#clip0_111_353)">
<path d="M21.4961 4.66333C22.0631 5.39555 22.5475 6.19523 22.9342 7.04895L11.9996 15.1072L7.43164 12.2435V8.79846L11.9996 11.6622L21.4961 4.66333Z" fill="#21A038"/>
<path d="M2.77158 12.0004C2.77158 11.8456 2.77555 11.6923 2.7835 11.5391L0.0150888 11.4009C0.00555907 11.5994 0 11.7995 0 12.0004C0 15.3144 1.34291 18.3148 3.51491 20.4859L5.47805 18.5228C3.80636 16.8519 2.77158 14.5449 2.77158 12.0004Z" fill="#21A038"/>
<path d="M11.9997 2.77238C12.1545 2.77238 12.3078 2.77794 12.461 2.78508L12.5992 0.0150888C12.4007 0.00555906 12.2006 0 11.9997 0C8.68565 0 5.68536 1.34291 3.51416 3.51491L5.47728 5.47807C7.14821 3.80715 9.45518 2.77238 11.9997 2.77238Z" fill="#21A038"/>
<path d="M11.9995 21.2284C11.8446 21.2284 11.6914 21.2245 11.5381 21.2165L11.3999 23.9849C11.5984 23.9945 11.7985 24 11.9995 24C15.3135 24 18.3138 22.6571 20.485 20.4851L18.5219 18.522C16.8509 20.1936 14.544 21.2284 11.9995 21.2284Z" fill="#21A038"/>
<path d="M17.202 4.38291L19.536 2.66279C17.476 0.998246 14.8545 0 11.9995 0V2.77238C13.9277 2.77238 15.7201 3.3672 17.202 4.38291Z" fill="#21A038"/>
<path d="M23.9999 12.0005C23.9999 11.2667 23.934 10.548 23.8077 9.85071L21.2243 11.7543C21.2267 11.8361 21.2275 11.9179 21.2275 12.0005C21.2275 14.7101 20.0537 17.1505 18.1875 18.8405L20.0498 20.8989C22.4759 18.7039 23.9999 15.5297 23.9999 12.0005Z" fill="#21A038"/>
<path d="M11.9995 21.2285C9.28986 21.2285 6.84945 20.0547 5.15951 18.1885L3.10107 20.0507C5.29689 22.4761 8.47031 24.0001 11.9995 24.0001V21.2285Z" fill="#21A038"/>
<path d="M5.8116 5.16038L3.94931 3.10193C1.52397 5.29776 0 8.47118 0 12.0004H2.77238C2.77158 9.29073 3.94534 6.85032 5.8116 5.16038Z" fill="#21A038"/>
</g>
<defs>
<clipPath id="clip0_111_353">
<rect width="24" height="24" fill="white"/>
</clipPath>
</defs>
</svg>
