<svg width="32" height="32" viewBox="0 0 32 32" fill="none" xmlns="http://www.w3.org/2000/svg">
<path d="M0 16C0 7.16344 7.16344 0 16 0C24.8366 0 32 7.16344 32 16C32 24.8366 24.8366 32 16 32C7.16344 32 0 24.8366 0 16Z" fill="#CCCCCC"/>
<path d="M22.6667 23.25V21.6667C22.6667 20.8268 22.333 20.0214 21.7392 19.4275C21.1453 18.8336 20.3399 18.5 19.5 18.5H13.1667C12.3268 18.5 11.5214 18.8336 10.9275 19.4275C10.3336 20.0214 10 20.8268 10 21.6667V23.25" stroke="white" stroke-linecap="round" stroke-linejoin="round"/>
<path d="M16.1667 15.3333C17.9156 15.3333 19.3333 13.9156 19.3333 12.1667C19.3333 10.4178 17.9156 9 16.1667 9C14.4178 9 13 10.4178 13 12.1667C13 13.9156 14.4178 15.3333 16.1667 15.3333Z" stroke="white" stroke-linecap="round" stroke-linejoin="round"/>
</svg>
