<svg width="220" height="174" viewBox="0 0 220 174" fill="none" xmlns="http://www.w3.org/2000/svg">
<path fill-rule="evenodd" clip-rule="evenodd" d="M100.475 4.62532C130.681 0.824654 161.081 14.7043 180.177 36.6018C199.355 58.5929 205.954 88.4809 197.171 115.507C188.994 140.671 164.859 158.254 137.884 166.749C114.6 174.081 90.6849 166.153 68.7042 155.962C47.3684 146.07 25.1765 133.581 20.0011 112.095C14.8515 90.7169 30.5811 71.751 44.0778 53.7268C59.5313 33.0893 73.5149 8.01766 100.475 4.62532Z" fill="#EAF4FC"/>
<path d="M76.7261 51.4017L58.9011 87.0001V118C58.9011 120.741 59.9898 123.369 61.9277 125.307C63.8656 127.245 66.4939 128.333 69.2345 128.333H151.901C154.642 128.333 157.27 127.245 159.208 125.307C161.146 123.369 162.234 120.741 162.234 118V87.0001L144.409 51.4017C143.554 49.6801 142.235 48.2313 140.601 47.2182C138.968 46.2051 137.084 45.6678 135.161 45.6667H85.9745C84.052 45.6678 82.168 46.2051 80.5342 47.2182C78.9004 48.2313 77.5816 49.6801 76.7261 51.4017Z" fill="#3086D5"/>
<g opacity="0.5">
<path d="M86.5831 72.5749L73.8901 97.2199V118.681C73.8901 120.579 74.6654 122.398 76.0453 123.74C77.4253 125.082 79.2969 125.835 81.2484 125.835H140.114C142.066 125.835 143.937 125.082 145.317 123.74C146.697 122.398 147.473 120.579 147.473 118.681V97.2199L134.78 72.5749C134.17 71.383 133.231 70.38 132.068 69.6786C130.905 68.9772 129.563 68.6052 128.194 68.6045H93.1687C91.7998 68.6052 90.4582 68.9772 89.2948 69.6786C88.1314 70.38 87.1923 71.383 86.5831 72.5749Z" fill="#3086D5"/>
<path d="M86.5831 72.5749L73.8901 97.2199V118.681C73.8901 120.579 74.6654 122.398 76.0453 123.74C77.4253 125.082 79.2969 125.835 81.2484 125.835H140.114C142.066 125.835 143.937 125.082 145.317 123.74C146.697 122.398 147.473 120.579 147.473 118.681V97.2199L134.78 72.5749C134.17 71.383 133.231 70.38 132.068 69.6786C130.905 68.9772 129.563 68.6052 128.194 68.6045H93.1687C91.7998 68.6052 90.4582 68.9772 89.2948 69.6786C88.1314 70.38 87.1923 71.383 86.5831 72.5749Z" fill="black" fill-opacity="0.2"/>
</g>
<path d="M58.9011 118.681V87H87.9354C88.9492 87 89.8944 87.512 90.4482 88.3612L98.8925 101.309C99.4463 102.158 100.392 102.67 101.405 102.67H118.595C119.609 102.67 120.554 102.158 121.108 101.309L129.552 88.3612C130.106 87.512 131.051 87 132.065 87H162.234V118.681C162.234 121.422 161.146 124.05 159.208 125.988C157.27 127.926 154.642 129.015 151.901 129.015H69.2345C66.4939 129.015 63.8656 127.926 61.9277 125.988C59.9898 124.05 58.9011 121.422 58.9011 118.681Z" fill="url(#paint0_linear_323_24794)"/>
<defs>
<linearGradient id="paint0_linear_323_24794" x1="111.547" y1="86.5471" x2="111.547" y2="129.015" gradientUnits="userSpaceOnUse">
<stop stop-color="#A7D9F9"/>
<stop offset="1" stop-color="#5EA7EA"/>
</linearGradient>
</defs>
</svg>
