<svg width="80" height="16" viewBox="0 0 80 16" fill="none" xmlns="http://www.w3.org/2000/svg">
<path d="M12.0159 3.779C11.5784 3.51381 11.0051 3.26335 10.2961 3.02762C9.60213 2.77716 8.75732 2.65193 7.76166 2.65193C6.99228 2.65193 6.32096 2.7477 5.7477 2.93923C5.18952 3.11602 4.71432 3.41068 4.32209 3.8232C3.94494 4.22099 3.65831 4.75138 3.4622 5.41436C3.28117 6.07735 3.19065 6.89503 3.19065 7.8674C3.19065 8.91344 3.28871 9.79006 3.48482 10.4972C3.69603 11.1897 3.99774 11.7495 4.38997 12.1768C4.79729 12.5893 5.29512 12.884 5.88347 13.0608C6.4869 13.2376 7.17331 13.326 7.94269 13.326C8.44052 13.326 8.90818 13.2891 9.34567 13.2155C9.79824 13.1271 10.2131 13.0239 10.5902 12.9061C10.9674 12.7882 11.2993 12.663 11.5859 12.5304C11.8725 12.3978 12.1064 12.2726 12.2874 12.1547V15.0718C11.8952 15.2781 11.3068 15.4843 10.5224 15.6906C9.75298 15.8821 8.83275 15.9779 7.76166 15.9779C6.40393 15.9779 5.23478 15.8232 4.2542 15.5138C3.28871 15.2044 2.48916 14.733 1.85556 14.0994C1.22195 13.4512 0.754291 12.6262 0.452575 11.6243C0.150858 10.6225 0 9.43647 0 8.0663C0 5.28177 0.626062 3.24862 1.87818 1.96685C3.13031 0.67035 5.08392 0.0220987 7.73903 0.0220987C8.77995 0.0220987 9.65493 0.110497 10.364 0.287292C11.073 0.449355 11.6236 0.589319 12.0159 0.707183V3.779Z" fill="#4A7BF7"/>
<path d="M14.0371 12.7956C14.2181 12.8545 14.4067 12.884 14.6028 12.884C14.8291 12.884 15.0327 12.8471 15.2138 12.7735C15.4099 12.6998 15.5909 12.5525 15.7568 12.3315C15.9228 12.0958 16.0736 11.7716 16.2094 11.3591C16.3603 10.9319 16.4885 10.3794 16.5941 9.70166C16.7148 9.00921 16.8129 8.16943 16.8883 7.18232C16.9788 6.19521 17.0542 5.01657 17.1146 3.64641L17.273 0.265193H27.9085V15.7348H24.8989V2.82873H19.9884L19.8979 4.35359C19.8074 6.03315 19.6942 7.48435 19.5585 8.70718C19.4227 9.93002 19.2568 10.9761 19.0606 11.8453C18.8645 12.6998 18.6382 13.3923 18.3818 13.9227C18.1253 14.453 17.8311 14.8729 17.4993 15.1823C17.1674 15.477 16.7978 15.6759 16.3905 15.779C15.9982 15.8821 15.5607 15.9337 15.078 15.9337C14.8668 15.9337 14.6782 15.919 14.5123 15.8895C14.3614 15.8748 14.203 15.8453 14.0371 15.8011V12.7956Z" fill="#4A7BF7"/>
<path d="M31.4681 8C31.4681 5.24494 32.1017 3.22652 33.3689 1.94475C34.6512 0.648251 36.6048 0 39.2297 0C40.5573 0 41.6887 0.162062 42.624 0.486187C43.5745 0.79558 44.3514 1.28177 44.9548 1.94475C45.5582 2.593 46.0033 3.41805 46.2899 4.41989C46.5765 5.42173 46.7199 6.6151 46.7199 8C46.7199 9.44383 46.5464 10.674 46.1994 11.6906C45.8675 12.7072 45.3772 13.5396 44.7285 14.1878C44.0949 14.8214 43.3029 15.2855 42.3525 15.5801C41.4172 15.86 40.3385 16 39.1166 16C37.9399 16 36.8764 15.8527 35.9259 15.558C34.9755 15.2634 34.1684 14.7993 33.5047 14.1657C32.856 13.5175 32.3506 12.6851 31.9885 11.6685C31.6416 10.6519 31.4681 9.4291 31.4681 8ZM34.6587 8.0442C34.6587 9.09024 34.7643 9.95948 34.9755 10.6519C35.1867 11.3296 35.4885 11.8821 35.8807 12.3094C36.288 12.7219 36.7708 13.0166 37.3289 13.1934C37.8871 13.3554 38.5132 13.4365 39.2071 13.4365C39.9011 13.4365 40.512 13.3481 41.04 13.1713C41.5831 12.9945 42.0357 12.6998 42.3978 12.2873C42.7749 11.86 43.0615 11.3076 43.2577 10.6298C43.4538 9.93738 43.5518 9.07551 43.5518 8.0442C43.5518 6.99816 43.4538 6.12155 43.2577 5.41436C43.0615 4.70718 42.7749 4.14733 42.3978 3.73481C42.0206 3.30755 41.553 3.00552 40.9948 2.82873C40.4366 2.65193 39.7955 2.56354 39.0713 2.56354C37.5628 2.56354 36.4464 2.99816 35.7223 3.8674C35.0133 4.72191 34.6587 6.11418 34.6587 8.0442Z" fill="#4A7BF7"/>
<path d="M50.3182 0.309392C51.1931 0.265193 52.0983 0.228361 53.0336 0.198896C53.9689 0.154696 54.8062 0.132597 55.5454 0.132597C56.707 0.132597 57.6725 0.213627 58.4419 0.37569C59.2113 0.523019 59.8222 0.758747 60.2748 1.08287C60.7274 1.39227 61.0442 1.79742 61.2252 2.29834C61.4213 2.79926 61.5194 3.40332 61.5194 4.1105C61.5194 5.98158 60.6142 7.16022 58.8039 7.64641C59.9806 7.73481 60.833 8.0884 61.361 8.70718C61.9041 9.31123 62.1756 10.1436 62.1756 11.2044C62.1756 12.0295 62.0625 12.7366 61.8362 13.326C61.625 13.9153 61.2554 14.4015 60.7274 14.7845C60.1994 15.1529 59.4979 15.4328 58.6229 15.6243C57.763 15.8011 56.6844 15.8895 55.387 15.8895C54.5875 15.8895 53.7577 15.8748 52.8979 15.8453C52.038 15.8158 51.1781 15.7643 50.3182 15.6906V0.309392ZM53.3278 13.3039C53.72 13.3333 54.1198 13.3628 54.5271 13.3923C54.9344 13.407 55.3342 13.4144 55.7264 13.4144C56.4053 13.4144 56.9635 13.3702 57.401 13.2818C57.8385 13.1934 58.1854 13.0608 58.4419 12.884C58.6983 12.6924 58.8718 12.4494 58.9623 12.1547C59.068 11.86 59.1208 11.5064 59.1208 11.0939C59.1208 10.2689 58.8794 9.70166 58.3966 9.39227C57.9139 9.08287 57.1068 8.92818 55.9754 8.92818H53.3278V13.3039ZM55.9301 6.82873C56.9258 6.82873 57.6046 6.65193 57.9667 6.29834C58.3438 5.94475 58.5324 5.4291 58.5324 4.75138C58.5324 4.32413 58.4947 3.9779 58.4193 3.71271C58.3438 3.43278 58.2005 3.21179 57.9893 3.04972C57.7781 2.88766 57.4839 2.77716 57.1068 2.71823C56.7296 2.6593 56.2469 2.62983 55.6586 2.62983C55.2663 2.62983 54.8741 2.6372 54.4819 2.65193C54.1047 2.65193 53.72 2.66667 53.3278 2.69613V6.82873H55.9301Z" fill="#4A7BF7"/>
<path d="M64.7482 8C64.7482 5.24494 65.3818 3.22652 66.649 1.94475C67.9313 0.648251 69.885 0 72.5099 0C73.8374 0 74.9689 0.162062 75.9042 0.486187C76.8546 0.79558 77.6315 1.28177 78.235 1.94475C78.8384 2.593 79.2834 3.41805 79.5701 4.41989C79.8567 5.42173 80 6.6151 80 8C80 9.44383 79.8265 10.674 79.4795 11.6906C79.1477 12.7072 78.6574 13.5396 78.0087 14.1878C77.3751 14.8214 76.5831 15.2855 75.6327 15.5801C74.6973 15.86 73.6187 16 72.3967 16C71.22 16 70.1565 15.8527 69.2061 15.558C68.2557 15.2634 67.4486 14.7993 66.7848 14.1657C66.1361 13.5175 65.6308 12.6851 65.2687 11.6685C64.9217 10.6519 64.7482 9.4291 64.7482 8ZM67.9389 8.0442C67.9389 9.09024 68.0445 9.95948 68.2557 10.6519C68.4669 11.3296 68.7686 11.8821 69.1608 12.3094C69.5682 12.7219 70.0509 13.0166 70.6091 13.1934C71.1673 13.3554 71.7933 13.4365 72.4873 13.4365C73.1812 13.4365 73.7922 13.3481 74.3202 13.1713C74.8633 12.9945 75.3158 12.6998 75.6779 12.2873C76.0551 11.86 76.3417 11.3076 76.5378 10.6298C76.7339 9.93738 76.832 9.07551 76.832 8.0442C76.832 6.99816 76.7339 6.12155 76.5378 5.41436C76.3417 4.70718 76.0551 4.14733 75.6779 3.73481C75.3008 3.30755 74.8331 3.00552 74.2749 2.82873C73.7168 2.65193 73.0756 2.56354 72.3515 2.56354C70.8429 2.56354 69.7266 2.99816 69.0024 3.8674C68.2934 4.72191 67.9389 6.11418 67.9389 8.0442Z" fill="#4A7BF7"/>
</svg>
